<svg height="512pt" viewBox="-45 0 512 512" width="512pt" xmlns="http://www.w3.org/2000/svg"><path d="m350.734375 71.820312 60.1875.117188-60.1875-58.984375zm0 0"/><path d="m335.53125 102.140625c-8.371094-.015625-15.144531-6.804687-15.144531-15.175781v-86.964844h-253.367188c-8.382812 0-15.175781 6.792969-15.175781 15.175781v270.464844c15.796875-6.597656 33.121094-10.25 51.285156-10.25 8.972656 0 17.738282.894531 26.21875 2.589844-1.015625-2.03125-1.597656-4.320313-1.597656-6.75 0-8.378907 6.792969-15.171875 15.171875-15.171875h182.773437c8.378907 0 15.175782 6.792968 15.175782 15.171875 0 8.382812-6.796875 15.175781-15.175782 15.175781h-169.492187c47.269531 20.566406 80.40625 67.714844 80.40625 122.464844 0 21.253906-5 41.355468-13.875 59.210937h184.835937c8.382813 0 15.175782-6.792969 15.175782-15.175781v-350.59375zm-64.46875 49.710937c0 8.382813-6.792969 15.175782-15.171875 15.175782h-112.96875c-8.378906 0-15.171875-6.792969-15.171875-15.175782 0-8.378906 6.792969-15.175781 15.171875-15.175781h112.96875c8.378906 0 15.171875 6.792969 15.171875 15.175781zm54.632812 74.867188h-182.773437c-8.378906 0-15.171875-6.796875-15.171875-15.175781 0-8.382813 6.792969-15.175781 15.171875-15.175781h182.773437c8.378907 0 15.175782 6.792968 15.175782 15.175781 0 8.378906-6.792969 15.175781-15.175782 15.175781zm0 0"/><path d="m206.261719 408.871094c0-56.867188-46.265625-103.128906-103.132813-103.128906-56.863281 0-103.128906 46.261718-103.128906 103.128906 0 56.867187 46.265625 103.128906 103.128906 103.128906 56.867188 0 103.132813-46.265625 103.132813-103.128906zm-54.414063 22.34375-39.886718 28.539062c-2.644532 1.890625-5.738282 2.832032-8.832032 2.832032-3.1875 0-6.375-1.003907-9.0625-3.003907l-38.3125-28.539062c-6.722656-5.007813-8.109375-14.515625-3.105468-21.234375 5.007812-6.722656 14.515624-8.113282 21.238281-3.105469l14.070312 10.480469v-48.328125c0-8.378907 6.792969-15.171875 15.171875-15.171875 8.382813 0 15.175782 6.792968 15.175782 15.171875v49.039062l15.878906-11.363281c6.816406-4.875 16.296875-3.304688 21.171875 3.511719 4.878906 6.816406 3.304687 16.292969-3.507813 21.171875zm0 0"/></svg>