<svg id="Layer_35" enable-background="new 0 0 64 64" height="512" viewBox="0 0 64 64" width="512" xmlns="http://www.w3.org/2000/svg"><path d="m62 12c0-1.105-.895-2-2-2h-3c1.105 0 2-.895 2-2s-.895-2-2-2h3c1.105 0 2-.895 2-2s-.895-2-2-2h-16c-1.105 0-2 .895-2 2s.895 2 2 2h3c-1.105 0-2 .895-2 2s.895 2 2 2h-3c-1.105 0-2 .895-2 2s.895 2 2 2h3c-1.105 0-2 .895-2 2s.895 2 2 2h-3c-1.105 0-2 .895-2 2s.895 2 2 2h16c1.105 0 2-.895 2-2s-.895-2-2-2h-3c1.105 0 2-.895 2-2s-.895-2-2-2h3c1.105 0 2-.895 2-2z"/><path d="m37 16c0-1.654 1.346-3 3-3h.142c-.084-.322-.142-.653-.142-1s.058-.678.142-1h-.142c-2.757 0-5 2.243-5 5v21h2z"/><path d="m31 16v21h2v-21c0-2.757-2.243-5-5-5h-1v2h1c1.654 0 3 1.346 3 3z"/><path d="m27 32v5h2v-5c0-2.757-2.243-5-5-5h-1.08c.047.328.08.66.08 1v1h1c1.654 0 3 1.346 3 3z"/><path d="m44 29c-2.757 0-5 2.243-5 5v3h2v-3c0-1.654 1.346-3 3-3h1.101c-.066-.323-.101-.657-.101-1s.035-.677.101-1z"/><path d="m27.618 39 3 6h28.764l-3-6zm19.382 4h-2v-2h2zm4 0h-2v-2h2zm4 0h-2v-2h2z"/><path d="m8 47v14h16v-20.764l-3.382 6.764zm4 12h-2v-2h2zm0-4h-2v-2h2zm0-4h-2v-2h2z"/><path d="m26 40.236v20.764h30v-14h-26.618zm24 18.764h-2v-2h2zm4 0h-2v-2h2zm-10-6h10v2h-10zm0 4h2v2h-2z"/><path d="m22.382 39h-14.764l-3 6h14.764z"/><circle cx="50" cy="30" r="3"/><path d="m11 11h2v4h-2z"/><path d="m4 19h20c.552 0 1-.448 1-1v-14c0-.552-.448-1-1-1h-20c-.552 0-1 .448-1 1v14c0 .552.448 1 1 1zm1-8h4v-2h4v-2h4v-2h6v12h-18z"/><path d="m15 9h2v6h-2z"/><path d="m7 13h2v2h-2z"/><path d="m19 7h2v8h-2z"/><path d="m21 33v-5c0-2.757-2.243-5-5-5h-8c-2.757 0-5 2.243-5 5s2.243 5 5 5zm-6-6h2v2h-2zm-4 0h2v2h-2zm-4 0h2v2h-2z"/></svg>