<svg id="Capa_1" enable-background="new 0 0 512 512" height="512" viewBox="0 0 512 512" width="512" xmlns="http://www.w3.org/2000/svg"><g><path d="m200.585 219-30.976 33.897v84.171c0 36.202 19.063 68.689 48.566 82.767l37.825 18.048 37.825-18.048c29.502-14.077 48.566-46.564 48.566-82.767v-84.171l-30.976-33.897zm111.806 118.068c0 24.704-12.358 46.564-31.484 55.691l-24.907 11.885-24.906-11.884c-19.126-9.127-31.485-30.987-31.485-55.691v-72.529l14.201-15.54h84.38l14.201 15.54z"/><path d="m232.819 98.333 38-50.833h241.181v-47.5h-512v98.333zm-60.986-63.5h30v30h-30zm-61.541 0h30v30h-30zm-61.542 0h30v30h-30z"/><path d="m285.848 77.5-38 50.833h-247.848v383.667h512v-434.5zm86.543 259.568c0 47.699-25.768 90.814-65.647 109.843l-50.744 24.212-50.744-24.212c-39.879-19.028-65.647-62.144-65.647-109.843v-95.813l47.751-52.255h137.28l47.751 52.255z"/><path d="m229.609 337.068c0 12.802 5.923 24.568 14.404 28.615l11.987 5.72 11.987-5.72c8.48-4.047 14.404-15.813 14.404-28.615v-58.068h-52.782z"/></g></svg>