<svg height="512" viewBox="0 0 64 64" width="512" xmlns="http://www.w3.org/2000/svg"><g id="Security_Database" data-name="Security Database"><path d="m46.48 3h-28.96a16.861 16.861 0 0 1 -9.52 11v6a43.784 43.784 0 0 0 6.71 23 58.869 58.869 0 0 0 9.83 12 53.146 53.146 0 0 0 7.46 6 53.146 53.146 0 0 0 7.46-6 58.869 58.869 0 0 0 9.83-12 43.784 43.784 0 0 0 6.71-23v-6a16.861 16.861 0 0 1 -9.52-11zm-5.48 26c0 1.66-4.03 3-9 3s-9-1.34-9-3v-6c0 1.66 4.03 3 9 3s9-1.34 9-3zm-9-9c-4.97 0-9-1.34-9-3s4.03-3 9-3 9 1.34 9 3-4.03 3-9 3z" fill="#78b9eb"/><g fill="#1a6fb0"><path d="m42 35v-18c0-2.748-5.184-4-10-4s-10 1.252-10 4v18c0 2.748 5.184 4 10 4s10-1.252 10-4zm-10-20c5.249 0 8 1.486 8 2s-2.751 2-8 2-8-1.486-8-2 2.751-2 8-2zm-8 4.524a19.008 19.008 0 0 0 8 1.476 19.008 19.008 0 0 0 8-1.476v3.476c0 .514-2.751 2-8 2s-8-1.486-8-2zm0 6a19.008 19.008 0 0 0 8 1.476 19.008 19.008 0 0 0 8-1.476v3.476c0 .514-2.751 2-8 2s-8-1.486-8-2zm8 11.476c-5.249 0-8-1.486-8-2v-3.476a19.008 19.008 0 0 0 8 1.476 19.008 19.008 0 0 0 8-1.476v3.476c0 .514-2.751 2-8 2z"/><path d="m31 22h2v2h-2z"/><path d="m31 28h2v2h-2z"/><path d="m31 34h2v2h-2z"/><path d="m56.414 49 5.293-5.293a1 1 0 0 0 -.707-1.707h-10.023a44.225 44.225 0 0 0 6.023-22v-6a1 1 0 0 0 -.624-.927 15.821 15.821 0 0 1 -8.933-10.331 1 1 0 0 0 -.965-.742h-28.956a1 1 0 0 0 -.965.742 15.821 15.821 0 0 1 -8.933 10.331 1 1 0 0 0 -.624.927v6a44.225 44.225 0 0 0 6.023 22h-10.023a1 1 0 0 0 -.707 1.707l5.293 5.293-5.293 5.293a1 1 0 0 0 .707 1.707h21.194a54.944 54.944 0 0 0 7.276 5.848 1 1 0 0 0 1.06 0 54.944 54.944 0 0 0 7.276-5.848h21.194a1 1 0 0 0 .707-1.707zm-46.707.707a1 1 0 0 0 0-1.414l-4.293-4.293h8.8a60.121 60.121 0 0 0 7.933 10h-16.733zm22.293 10.093c-3.493-2.391-23-16.78-23-39.8v-5.344a17.983 17.983 0 0 0 9.271-10.656h27.458a17.983 17.983 0 0 0 9.271 10.656v5.344c0 22.992-19.508 37.4-23 39.8zm9.849-5.8a60.121 60.121 0 0 0 7.933-10h8.8l-4.293 4.293a1 1 0 0 0 0 1.414l4.297 4.293z"/></g></g></svg>