<svg height="480pt" viewBox="0 -48 480 480" width="480pt" xmlns="http://www.w3.org/2000/svg" xmlns:xlink="http://www.w3.org/1999/xlink"><linearGradient id="a"><stop offset="0" stop-color="#4761ac"/><stop offset="1" stop-color="#54c2ef"/></linearGradient><linearGradient id="b" gradientUnits="userSpaceOnUse" x1="-24" x2="496.984" xlink:href="#a" y1="184" y2="184"/><linearGradient id="c" gradientUnits="userSpaceOnUse" x1="-24" x2="496.984" xlink:href="#a" y1="300" y2="300"/><linearGradient id="d" gradientUnits="userSpaceOnUse" x1="-24" x2="496.984" xlink:href="#a" y1="240" y2="240"/><linearGradient id="e" gradientUnits="userSpaceOnUse" x1="-24" x2="496.984" xlink:href="#a" y1="272" y2="272"/><linearGradient id="f" gradientUnits="userSpaceOnUse" x1="-24" x2="496.984" xlink:href="#a" y1="304" y2="304"/><linearGradient id="g" gradientUnits="userSpaceOnUse" x1="-24" x2="496.984" xlink:href="#a" y1="80" y2="80"/><linearGradient id="h" gradientUnits="userSpaceOnUse" x1="-24" x2="496.984" xlink:href="#a" y1="192" y2="192"/><path d="m440 152h-200c-4.417969 0-8 3.582031-8 8v48c0 4.417969 3.582031 8 8 8h200c4.417969 0 8-3.582031 8-8v-48c0-4.417969-3.582031-8-8-8zm-8 48h-184v-32h184zm0 0" fill="url(#b)"/><path d="m128 232c26.507812 0 48-21.492188 48-48s-21.492188-48-48-48-48 21.492188-48 48c.027344 26.5 21.5 47.972656 48 48zm0-80c17.671875 0 32 14.328125 32 32s-14.328125 32-32 32-32-14.328125-32-32 14.328125-32 32-32zm0 0" fill="url(#b)"/><path d="m154.289062 248h-52.578124c-25.230469.03125-45.679688 20.480469-45.710938 45.710938v50.289062c0 4.417969 3.582031 8 8 8h128c4.417969 0 8-3.582031 8-8v-50.289062c-.03125-25.230469-20.480469-45.679688-45.710938-45.710938zm29.710938 88h-112v-42.289062c.019531-16.402344 13.308594-29.691407 29.710938-29.710938h52.578124c16.402344.019531 29.691407 13.308594 29.710938 29.710938zm0 0" fill="url(#c)"/><path d="m440 232h-200c-4.417969 0-8 3.582031-8 8s3.582031 8 8 8h200c4.417969 0 8-3.582031 8-8s-3.582031-8-8-8zm0 0" fill="url(#d)"/><path d="m240 280h152c4.417969 0 8-3.582031 8-8s-3.582031-8-8-8h-152c-4.417969 0-8 3.582031-8 8s3.582031 8 8 8zm0 0" fill="url(#e)"/><path d="m280 296h-40c-4.417969 0-8 3.582031-8 8s3.582031 8 8 8h40c4.417969 0 8-3.582031 8-8s-3.582031-8-8-8zm0 0" fill="url(#f)"/><path d="m440 296h-128c-4.417969 0-8 3.582031-8 8s3.582031 8 8 8h128c4.417969 0 8-3.582031 8-8s-3.582031-8-8-8zm0 0" fill="url(#f)"/><path d="m440 72h-64c-4.417969 0-8 3.582031-8 8s3.582031 8 8 8h64c4.417969 0 8-3.582031 8-8s-3.582031-8-8-8zm0 0" fill="url(#g)"/><path d="m440 32h-140l-21.601562-28.800781c-1.507813-2.011719-3.878907-3.199219-6.398438-3.199219h-64c-2.519531 0-4.890625 1.1875-6.398438 3.199219l-21.601562 28.800781h-140c-22.082031.027344-39.9726562 17.917969-40 40v272c.0273438 22.082031 17.917969 39.972656 40 40h400c22.082031-.027344 39.972656-17.917969 40-40v-272c-.027344-22.082031-17.917969-39.972656-40-40zm-228-16h56l36 48h-128zm-196 56c0-13.253906 10.746094-24 24-24h128l-14.398438 19.199219c-1.820312 2.425781-2.113281 5.667969-.757812 8.378906s4.125 4.421875 7.15625 4.421875h160c3.03125 0 5.800781-1.710938 7.15625-4.421875s1.0625-5.953125-.757812-8.378906l-14.398438-19.199219h128c13.253906 0 24 10.746094 24 24v32h-448zm424 296h-400c-13.253906 0-24-10.746094-24-24v-224h448v224c0 13.253906-10.746094 24-24 24zm0 0" fill="url(#h)"/></svg>