<svg height="420pt" viewBox="0 -7 420 420" width="420pt" xmlns="http://www.w3.org/2000/svg" xmlns:xlink="http://www.w3.org/1999/xlink"><linearGradient id="a"><stop offset=".322" stop-color="#a163f5"/><stop offset=".466" stop-color="#b074ee"/><stop offset=".752" stop-color="#d8a1dd"/><stop offset=".898" stop-color="#efbad3"/></linearGradient><linearGradient id="b" gradientUnits="userSpaceOnUse" x1="210" x2="210" xlink:href="#a" y1="448.872" y2="-54.356"/><linearGradient id="c" gradientUnits="userSpaceOnUse" x1="100" x2="100" xlink:href="#a" y1="448.872" y2="-54.356"/><path d="m411 0h-100c-4.96875 0-9 4.03125-9 9v90h-90c-4.96875 0-9 4.03125-9 9v96h-95c-4.96875 0-9 4.03125-9 9v88h-90c-4.96875 0-9 4.03125-9 9v86c0 4.96875 4.03125 9 9 9h402c4.96875 0 9-4.03125 9-9v-387c0-4.96875-4.03125-9-9-9zm-9 387h-384v-68h90c4.96875 0 9-4.03125 9-9v-88h95c4.96875 0 9-4.03125 9-9v-96h90c4.96875 0 9-4.03125 9-9v-90h82zm0 0" fill="url(#b)"/><path d="m48.164062 143.363281c2.390626 0 4.679688-.945312 6.367188-2.636719l88.296875-88.300781v27.214844c0 4.972656 4.03125 9 9 9 4.972656 0 9-4.027344 9-9v-50c0-4.96875-4.027344-9-9-9h-50c-4.96875 0-9 4.03125-9 9 0 4.972656 4.03125 9 9 9h29.332031l-89.359375 89.359375c-2.574219 2.574219-3.34375 6.445312-1.953125 9.808594 1.394532 3.363281 4.675782 5.554687 8.316406 5.554687zm0 0" fill="url(#c)"/></svg>