<svg height="496pt" viewBox="-15 0 495 496" width="496pt" xmlns="http://www.w3.org/2000/svg" xmlns:xlink="http://www.w3.org/1999/xlink"><linearGradient id="a" gradientUnits="userSpaceOnUse" x1="232.5" x2="232.5" y1="496" y2="0"><stop offset="0" stop-color="#9f2fff"/><stop offset="1" stop-color="#0bb1d3"/></linearGradient><path d="m26.460938 392.71875c-15.527344 5.824219-25.960938 20.875-25.960938 37.457031v49.824219h112v16h240v-16h112v-49.824219c0-16.582031-10.433594-31.632812-25.953125-37.457031l-38.046875-14.261719v-6.777343c6.054688-5.433594 10.71875-12.359376 13.398438-20.222657 15.074218-2.585937 26.601562-15.664062 26.601562-31.457031v-32c0-11.832031-2.921875-22.976562-8-32.832031v-40.992188c0-16.582031-10.433594-31.632812-25.953125-37.457031l-38.046875-14.261719v-6.777343c6.054688-5.433594 10.71875-12.359376 13.398438-20.222657 15.074218-2.585937 26.601562-15.664062 26.601562-31.457031v-32c0-39.695312-32.296875-72-72-72s-72 32.304688-72 72v32c0 15.792969 11.527344 28.871094 26.601562 31.457031 2.679688 7.855469 7.34375 14.78125 13.398438 20.222657v6.777343l-30.0625 11.269531c-10.847656-8.742187-24.441406-13.726562-38.777344-13.726562h-3.160156c-16.121094 0-31.113281 4.832031-43.6875 13.070312l-28.3125-10.613281v-6.777343c6.054688-5.433594 10.71875-12.359376 13.398438-20.222657 15.074218-2.585937 26.601562-15.664062 26.601562-31.457031v-32c0-39.695312-32.296875-72-72-72s-72 32.304688-72 72v32c0 15.792969 11.527344 28.871094 26.601562 31.457031 2.679688 7.855469 7.34375 14.78125 13.398438 20.222657v6.777343l-38.039062 14.269531c-15.527344 5.816407-25.960938 20.867188-25.960938 37.449219v40.992188c-5.078125 9.855469-8 21-8 32.832031v32c0 15.792969 11.527344 28.871094 26.601562 31.457031 2.679688 7.855469 7.34375 14.78125 13.398438 20.222657v6.777343zm-9.960938 71.28125v-33.824219c0-9.953125 6.257812-18.976562 15.574219-22.472656l37.625-14.101563 26.800781 35.734376 26.726562-35.632813 8.226563 3.273437c-11.824219 10.472657-18.953125 25.664063-18.953125 41.925782v25.097656zm48-128v-32.542969c11.710938-1.234375 22.761719-5.503906 32-12.769531 9.238281 7.273438 20.289062 11.535156 32 12.769531v32.542969c0 17.648438-14.351562 32-32 32s-32-14.351562-32-32zm32-104c30.871094 0 56 25.121094 56 56v4.449219c-4.726562-2.753907-10.144531-4.449219-16-4.449219h-1.375c-12.457031 0-24.167969-4.847656-32.96875-13.65625l-5.65625-5.664062-5.65625 5.664062c-8.808594 8.808594-20.511719 13.65625-32.96875 13.65625h-1.375c-5.855469 0-11.273438 1.695312-16 4.449219v-4.449219c0-30.878906 25.128906-56 56-56zm80.328125 77.953125c-4.9375-2.730469-8.328125-7.921875-8.328125-13.953125 0-5.894531 3.238281-11 8-13.777344v21.777344c0 2.007812.121094 3.992188.328125 5.953125zm-32.328125-3.730469c4.761719 2.777344 8 7.882813 8 13.777344s-3.238281 11-8 13.777344zm-2.601562 45.234375c13.976562-2.394531 24.746093-13.839843 26.257812-28.089843 4.070312 2.441406 8.710938 3.953124 13.6875 4.367187 4.191406 8.921875 10.640625 16.5625 18.648438 22.160156v12.960938l-52.0625 23.664062-19.929688-7.945312v-6.894531c6.054688-5.441407 10.71875-12.367188 13.398438-20.222657zm146.601562-47.457031v-21.777344c4.761719 2.777344 8 7.882813 8 13.777344 0 6.03125-3.390625 11.222656-8.328125 13.953125.207031-1.960937.328125-3.945313.328125-5.953125zm136-16v4.449219c-4.726562-2.753907-10.144531-4.449219-16-4.449219h-80c-5.855469 0-11.273438 1.695312-16 4.449219v-4.449219c0-30.878906 25.128906-56 56-56s56 25.121094 56 56zm-104 45.777344c-4.761719-2.777344-8-7.882813-8-13.777344s3.238281-11 8-13.777344zm-37.351562-6.042969c4.976562-.414063 9.617187-1.925781 13.6875-4.367187 1.519531 14.25 12.289062 25.695312 26.257812 28.089843 2.6875 7.855469 7.351562 14.78125 13.40625 20.222657v6.894531l-19.9375 7.945312-52.0625-23.671875v-12.960937c8.007812-5.597657 14.457031-13.238281 18.648438-22.152344zm-52.089844 128.265625h2.882812l4.796875 24h-12.476562zm4.496094-16h-6.109376l-9.753906-19.503906 12.808594-10.25 12.808594 10.25zm-3.054688-80c5.558594 0 10.929688-.839844 16-2.359375v7.695313l-16 21.328124-16-21.328124v-7.695313c5.070312 1.519531 10.441406 2.359375 16 2.359375zm-26.542969 17.945312 15.488281 20.65625-26.21875 20.972657-14.964843-29.941407zm37.597657 20.65625 15.488281-20.65625 25.703125 11.679688-14.964844 29.941406zm28.945312-94.601562c0 22.054688-17.945312 40-40 40s-40-17.945312-40-40v-40.359375c14.257812-1.304687 27.945312-6.089844 40-14.023437 12.054688 7.933593 25.742188 12.71875 40 14.023437zm-144 134.902344c0-15.644532 9.199219-29.933594 23.457031-36.414063l13.726563-6.242187 24.097656 48.179687 17.144531-13.714843 9.199219 18.410156-6.183594 30.878906h-33.441406v-32h-16v32h-32zm208 41.097656h-32v-32h-16v32h-33.441406l-6.175782-30.878906 9.203126-18.410156 17.140624 13.714843 24.089844-48.179687 13.726563 6.242187c14.257812 6.480469 23.457031 20.777344 23.457031 36.414063zm112-49.824219v33.824219h-96v-25.097656c0-16.261719-7.128906-31.460938-18.953125-41.925782l8.226563-3.28125 26.726562 35.640626 26.800781-35.734376 37.625 14.109376c9.316407 3.488281 15.574219 12.511718 15.574219 22.464843zm-64-48.839843-16 21.335937-16-21.335937v-.136719c5.015625 1.785156 10.382812 2.800781 16 2.800781s10.984375-1.023438 16-2.800781zm-16-13.335938c-17.648438 0-32-14.351562-32-32v-32h64v32c0 17.648438-14.351562 32-32 32zm48-34.222656v-27.546875c4.761719 2.777343 8 7.882812 8 13.777343 0 5.894532-3.238281 10.992188-8 13.769532zm0-119.601563v20.3125c-12.753906-11.457031-29.550781-18.488281-48-18.488281-22.609375 0-42.792969 10.496094-56 26.847656v-17.542968c0-17.105469-10.078125-32.3125-25.433594-39.214844l19.433594-7.289063c4.457031 12.320313 16.160156 21.199219 30 21.199219s25.542969-8.878906 29.992188-21.207031l34.433593 12.910156c9.316407 3.496094 15.574219 12.519531 15.574219 22.472656zm-80-62.175781c-17.648438 0-32-14.351562-32-32v-32.566406c13.839844-1.273438 27.175781-5.617188 38.96875-13.152344l.0625.0625c6.777344 6.777344 15.59375 11.257812 24.96875 12.914062v32.742188c0 17.648438-14.351562 32-32 32zm48-34.222656v-27.546875c4.761719 2.777343 8 7.882812 8 13.777343 0 5.894532-3.238281 10.992188-8 13.769532zm-48-101.777344c30.871094 0 56 25.121094 56 56v4.449219c-4.726562-2.753907-10.144531-4.449219-16-4.449219-8.0625 0-15.953125-3.273438-21.65625-8.96875l-9.328125-9.328125-9.488281 6.328125c-11.742188 7.824219-25.414063 11.96875-39.527344 11.96875-5.855469 0-11.273438 1.695312-16 4.449219v-4.449219c0-30.878906 25.128906-56 56-56zm-56 88c0-5.894531 3.238281-11 8-13.777344v27.546875c-4.761719-2.769531-8-7.875-8-13.769531zm56 64c5.617188 0 10.984375-1.023438 16-2.800781v2.800781c0 8.824219-7.175781 16-16 16s-16-7.175781-16-16v-2.800781c5.015625 1.777343 10.382812 2.800781 16 2.800781zm-100.839844 8c15.382813 0 29.65625 7.640625 38.183594 20.441406l1.519531 2.285156 2.601563.867188c11.085937 3.6875 18.535156 14.023438 18.535156 25.703125v43.152344c-2.480469-1.449219-5.152344-2.578125-8-3.3125v-17.136719h-8c-14.113281 0-27.785156-4.144531-39.527344-11.96875l-8.472656-5.648438-8.472656 5.648438c-11.742188 7.824219-25.414063 11.96875-39.527344 11.96875h-8v17.136719c-2.847656.742187-5.519531 1.863281-8 3.3125v-28.449219c0-35.289062 28.710938-64 64-64zm-107.160156-24c-17.648438 0-32-14.351562-32-32v-32h64v32c0 17.648438-14.351562 32-32 32zm48-34.222656v-27.546875c4.761719 2.777343 8 7.882812 8 13.777343 0 5.894532-3.238281 10.992188-8 13.769532zm-48-101.777344c30.871094 0 56 25.121094 56 56v4.449219c-4.726562-2.753907-10.144531-4.449219-16-4.449219h-80c-5.855469 0-11.273438 1.695312-16 4.449219v-4.449219c0-30.878906 25.128906-56 56-56zm-56 88c0-5.894531 3.238281-11 8-13.777344v27.546875c-4.761719-2.769531-8-7.875-8-13.769531zm56 64c5.617188 0 10.984375-1.023438 16-2.800781v2.800781c0 8.824219-7.175781 16-16 16s-16-7.175781-16-16v-2.800781c5.015625 1.777343 10.382812 2.800781 16 2.800781zm-64.425781 23.703125 34.425781-12.910156c4.457031 12.328125 16.160156 21.207031 30 21.207031s25.542969-8.878906 29.992188-21.207031l16.183593 6.070312c-13.695312 14.359375-22.175781 33.761719-22.175781 55.136719v2.847656c-13.207031-16.351562-33.390625-26.847656-56-26.847656-18.449219 0-35.246094 7.03125-48 18.488281v-20.3125c0-9.953125 6.257812-18.976562 15.574219-22.472656zm-23.574219 128.296875c0-5.894531 3.238281-11 8-13.777344v27.546875c-4.761719-2.769531-8-7.875-8-13.769531zm56 64c5.617188 0 10.984375-1.023438 16-2.800781v.136719l-16 21.335937-16-21.335937v-.136719c5.015625 1.777343 10.382812 2.800781 16 2.800781zm0 0" fill="url(#a)"/></svg>